<svg width="29" height="29" viewBox="0 0 29 29" fill="none" xmlns="http://www.w3.org/2000/svg">
<g id="Edit / Add_Plus_Square">
<path id="Vector" d="M9.66668 14.4999H14.5M14.5 14.4999H19.3333M14.5 14.4999V19.3333M14.5 14.4999V9.66658M4.83334 20.3002V8.70015C4.83334 7.34669 4.83334 6.66946 5.09674 6.15251C5.32844 5.69778 5.69787 5.32835 6.1526 5.09665C6.66955 4.83325 7.34679 4.83325 8.70025 4.83325H20.3002C21.6537 4.83325 22.3301 4.83325 22.847 5.09665C23.3018 5.32835 23.6718 5.69778 23.9035 6.15251C24.1669 6.66946 24.1669 7.34619 24.1669 8.69965V20.2997C24.1669 21.6531 24.1669 22.3299 23.9035 22.8468C23.6718 23.3015 23.3018 23.6717 22.847 23.9034C22.3306 24.1666 21.6551 24.1666 20.3043 24.1666H8.69627C7.34546 24.1666 6.66905 24.1666 6.1526 23.9034C5.69787 23.6717 5.32844 23.3017 5.09674 22.8469C4.83334 22.33 4.83334 21.6536 4.83334 20.3002Z" stroke="#252F64" stroke-width="2" stroke-linecap="round" stroke-linejoin="round"/>
</g>
</svg>
