<svg width="35" height="35" viewBox="0 0 35 35" fill="none" xmlns="http://www.w3.org/2000/svg">
<g id="Edit / Add_Plus_Square">
<path id="Vector" d="M11.6666 17.4999H17.5M17.5 17.4999H23.3333M17.5 17.4999V23.3333M17.5 17.4999V11.6666M5.83331 24.5002V10.5002C5.83331 8.86672 5.83331 8.04936 6.15121 7.42546C6.43084 6.87665 6.87671 6.43078 7.42552 6.15115C8.04943 5.83325 8.86678 5.83325 10.5003 5.83325H24.5003C26.1338 5.83325 26.9501 5.83325 27.574 6.15115C28.1228 6.43078 28.5694 6.87665 28.8491 7.42546C29.167 8.04936 29.167 8.86611 29.167 10.4996V24.4996C29.167 26.1331 29.167 26.9499 28.8491 27.5738C28.5694 28.1226 28.1228 28.5694 27.574 28.849C26.9507 29.1666 26.1355 29.1666 24.5052 29.1666H10.4955C8.86518 29.1666 8.04882 29.1666 7.42552 28.849C6.87671 28.5694 6.43084 28.1227 6.15121 27.5739C5.83331 26.95 5.83331 26.1337 5.83331 24.5002Z" stroke="white" stroke-width="2" stroke-linecap="round" stroke-linejoin="round"/>
</g>
</svg>
